HIERARCHY
ROOT Hips
{
	OFFSET 43.132599 -26.161715 95.880196
	CHANNELS 6 Xposition Yposition Zposition Xrotation Yrotation Zrotation
	JOINT spine
	{
		OFFSET 0.000000 -0.467661 8.132500
		CHANNELS 3 Xrotation Yrotation Zrotation
		JOINT spine1
		{
			OFFSET 0.000000 -0.000002 10.349800
			CHANNELS 3 Xrotation Yrotation Zrotation
			JOINT spine2
			{
				OFFSET 0.000000 -0.000002 9.916992
				CHANNELS 3 Xrotation Yrotation Zrotation
				JOINT Neck
				{
					OFFSET 0.000000 -1.213903 25.461006
					CHANNELS 3 Xrotation Yrotation Zrotation
					JOINT Head
					{
						OFFSET 0.000000 0.000000 7.692444
						CHANNELS 3 Xrotation Yrotation Zrotation
						End Site
						{
							OFFSET 0.000000 6.140625 18.619995
						}
					}
				}
				JOINT RightShoulder
				{
					OFFSET -4.175751 0.581444 10.709602
					CHANNELS 3 Xrotation Yrotation Zrotation
					JOINT RightArm
					{
						OFFSET 0.000000 -0.000002 14.046600
						CHANNELS 3 Xrotation Yrotation Zrotation
						JOINT RightArmRoll
						{
							OFFSET 0.000000 0.000000 7.090973
							CHANNELS 3 Xrotation Yrotation Zrotation
							JOINT RightForeArm
							{
								OFFSET 0.000000 -0.000004 20.653503
								CHANNELS 3 Xrotation Yrotation Zrotation
								JOINT RightForeArmRoll
								{
									OFFSET 0.000000 -0.000002 7.957184
									CHANNELS 3 Xrotation Yrotation Zrotation
									JOINT RightHand
									{
										OFFSET 0.000000 -0.000002 15.968307
										CHANNELS 3 Xrotation Yrotation Zrotation
										End Site
										{
											OFFSET 0.000000 0.000000 0.100006
										}
									}
								}
							}
						}
					}
				}
				JOINT LeftShoulder
				{
					OFFSET 4.175751 0.581444 10.709602
					CHANNELS 3 Xrotation Yrotation Zrotation
					JOINT LeftArm
					{
						OFFSET 0.000000 -0.000002 14.046600
						CHANNELS 3 Xrotation Yrotation Zrotation
						JOINT LeftArmRoll
						{
							OFFSET 0.000000 0.000000 7.090973
							CHANNELS 3 Xrotation Yrotation Zrotation
							JOINT LeftForeArm
							{
								OFFSET 0.000000 -0.000004 20.653503
								CHANNELS 3 Xrotation Yrotation Zrotation
								JOINT LeftForeArmRoll
								{
									OFFSET 0.000000 -0.000002 7.957184
									CHANNELS 3 Xrotation Yrotation Zrotation
									JOINT LeftHand
									{
										OFFSET 0.000000 -0.000002 15.968307
										CHANNELS 3 Xrotation Yrotation Zrotation
										End Site
										{
											OFFSET 0.000000 0.000000 0.100006
										}
									}
								}
							}
						}
					}
				}
			}
		}
	}
	JOINT RightUpLeg
	{
		OFFSET -7.208340 1.108839 -1.321823
		CHANNELS 3 Xrotation Yrotation Zrotation
		JOINT RightUpLegRoll
		{
			OFFSET 0.000000 -0.000004 18.723801
			CHANNELS 3 Xrotation Yrotation Zrotation
			JOINT RightLeg
			{
				OFFSET 0.000000 0.000004 -23.186600
				CHANNELS 3 Xrotation Yrotation Zrotation
				JOINT RightLegRoll
				{
					OFFSET 0.000000 -0.000004 23.262398
					CHANNELS 3 Xrotation Yrotation Zrotation
					JOINT RightFoot
					{
						OFFSET 0.000000 -0.000002 19.362106
						CHANNELS 3 Xrotation Yrotation Zrotation
						JOINT RightToeBase
						{
							OFFSET 0.000000 -0.000004 16.185699
							CHANNELS 3 Xrotation Yrotation Zrotation
							End Site
							{
								OFFSET 0.006859 0.903522 7.838623
							}
						}
					}
				}
			}
		}
	}
	JOINT LeftUpLeg
	{
		OFFSET 7.208340 1.108839 -1.321823
		CHANNELS 3 Xrotation Yrotation Zrotation
		JOINT LeftUpLegRoll
		{
			OFFSET 0.000000 -0.000004 18.723900
			CHANNELS 3 Xrotation Yrotation Zrotation
			JOINT LeftLeg
			{
				OFFSET 0.000000 -0.000004 23.186508
				CHANNELS 3 Xrotation Yrotation Zrotation
				JOINT LeftLegRoll
				{
					OFFSET 0.000000 -0.000004 23.477509
					CHANNELS 3 Xrotation Yrotation Zrotation
					JOINT LeftFoot
					{
						OFFSET 0.000000 -0.000002 19.147003
						CHANNELS 3 Xrotation Yrotation Zrotation
						JOINT LeftToeBase
						{
							OFFSET 0.000000 -0.000004 16.185699
							CHANNELS 3 Xrotation Yrotation Zrotation
							End Site
							{
								OFFSET -0.030746 0.903522 7.838623
							}
						}
					}
				}
			}
		}
	}
}
MOTION
Frames: 5
Frame Time: 0.041667
57.977604 -17.436220 96.635475 -2.606437 -1.444513 52.953541 -1.155562 0.265053 0.939348 1.684187 0.514298 1.892428 3.328926 0.536945 1.886244 -6.229240 11.094253 3.729192 4.728034 -5.399156 2.200138 -11.987797 -30.609735 -12.571214 -66.142227 -216.402782 -79.651248 0.000001 0.000010 -0.000010 4.923597 4.951032 -0.517030 0.000001 0.000002 -2.999995 -5.000197 -7.999319 0.000097 -37.492035 56.795123 44.555223 -63.061900 118.055790 55.770581 -0.000000 0.000011 0.000006 3.166039 9.785281 0.478953 0.000006 -0.000017 3.005459 -5.000212 7.998922 -0.000146 -1.006201 -172.396160 5.701237 -179.999991 0.000005 -1.201001 154.091964 -2.114047 -1.332552 -0.000004 -0.000001 0.546665 71.727874 6.809858 2.152320 31.213807 -6.612936 7.818952 -4.491333 179.002073 2.967530 -0.000004 -0.000005 -1.010443 -9.290691 0.548555 0.420890 -0.000005 -0.000000 -0.170564 69.230668 -6.697812 -2.619880 25.460396 7.355622 -0.003912 
57.968399 -17.456818 96.641586 -2.616070 -1.426372 53.044741 -1.154993 0.261964 0.939246 1.685576 0.508679 1.891953 3.330314 0.531319 1.885823 -6.275583 11.298752 3.736879 4.721650 -5.607915 2.189404 -11.863266 -30.585638 -12.392486 -65.941986 -216.144861 -79.824154 0.000001 0.000010 -0.000008 4.952049 4.624166 -0.538168 0.000002 0.000002 -2.999991 -5.000197 -7.999320 0.000093 -37.608207 56.849953 44.685946 -62.987048 117.994796 55.706091 -0.000001 0.000011 0.000005 3.225542 9.801639 0.472788 0.000004 -0.000017 3.005499 -5.000212 7.998921 -0.000145 -1.001220 -172.404152 5.700543 -179.999991 0.000006 -1.203001 154.125718 -2.117343 -1.331614 -0.000004 -0.000002 0.544675 71.702957 6.811081 2.153536 31.198764 -6.612745 7.832620 -4.503786 178.966215 2.954599 -0.000004 -0.000004 -1.009373 -9.284679 0.541332 0.421260 -0.000005 0.000000 -0.169870 69.216659 -6.691333 -2.637636 25.460391 7.355623 -0.003913 
57.956802 -17.482817 96.643570 -2.626122 -1.408088 53.133927 -1.154190 0.258632 0.939075 1.687505 0.502627 1.891263 3.332241 0.525258 1.885196 -6.324402 11.503953 3.746102 4.714940 -5.816864 2.179472 -11.737023 -30.573532 -12.212081 -65.743795 -215.866681 -79.998693 0.000001 0.000009 -0.000008 5.017192 4.277407 -0.562507 0.000002 0.000002 -2.999992 -5.000196 -7.999319 0.000094 -37.724132 56.902268 44.816689 -62.903788 117.934554 55.631638 -0.000000 0.000012 0.000006 3.284077 9.817248 0.466812 0.000005 -0.000017 3.005550 -5.000212 7.998922 -0.000146 -0.996735 -172.411132 5.700301 -179.999991 0.000004 -1.203994 154.158380 -2.121531 -1.330144 -0.000004 -0.000001 0.542711 71.677624 6.812335 2.154887 31.184106 -6.612404 7.846665 -4.515651 178.930329 2.941233 -0.000005 -0.000004 -1.008330 -9.278848 0.534295 0.421695 -0.000005 -0.000000 -0.169218 69.203190 -6.684909 -2.655068 25.460497 7.355622 -0.003937 
57.951004 -17.505419 96.647385 -2.636866 -1.389865 53.221100 -1.153111 0.255063 0.938809 1.690073 0.496143 1.890331 3.334807 0.518761 1.884336 -6.376135 11.708947 3.756616 4.709112 -6.024962 2.170179 -11.609366 -30.572903 -12.030521 -65.545617 -215.570087 -80.174898 0.000001 0.000010 -0.000010 5.114228 3.915040 -0.589007 0.000002 0.000003 -2.999991 -5.000197 -7.999319 0.000097 -37.840191 56.952385 44.947679 -62.811991 117.874968 55.547002 -0.000001 0.000011 0.000005 3.341553 9.832083 0.461005 0.000004 -0.000016 3.005589 -5.000212 7.998923 -0.000145 -0.992434 -172.417115 5.700368 -179.999991 0.000005 -1.205004 154.189936 -2.125700 -1.328720 -0.000004 -0.000002 0.540773 71.651785 6.813643 2.156177 31.170050 -6.611935 7.861074 -4.526717 178.892476 2.927447 -0.000004 -0.000005 -1.007304 -9.273378 0.527443 0.422180 -0.000005 -0.000000 -0.168618 69.190055 -6.678492 -2.672579 25.460493 7.355618 -0.003945 
57.944405 -17.529619 96.652885 -2.648590 -1.371912 53.306242 -1.151681 0.251268 0.938435 1.693382 0.489225 1.889159 3.338124 0.511828 1.883239 -6.431181 11.912732 3.768234 4.705349 -6.231132 2.161378 -11.480555 -30.582934 -11.848265 -65.348149 -215.258179 -80.345175 0.000001 0.000010 -0.000008 5.238361 3.541300 -0.616719 0.000003 0.000003 -2.999992 -5.000196 -7.999319 0.000096 -37.955877 57.000695 45.078501 -62.714906 117.815162 55.455744 -0.000002 0.000010 0.000006 3.397919 9.846180 0.455383 0.000006 -0.000017 3.005630 -5.000212 7.998922 -0.000145 -0.987987 -172.423126 5.700619 -179.999991 0.000005 -1.206003 154.220371 -2.129851 -1.327321 -0.000002 -0.000002 0.538858 71.625305 6.814948 2.157603 31.156881 -6.611302 7.875862 -4.536809 178.854610 2.912935 -0.000005 -0.000005 -1.006305 -9.268438 0.520771 0.422690 -0.000005 0.000000 -0.168052 69.177249 -6.672124 -2.689879 25.460497 7.355617 -0.003945 
